<?xml version="1.0" encoding="UTF-8" standalone="no"?>
<!-- Created with Inkscape (http://www.inkscape.org/) -->

<svg
   version="1.1"
   id="svg1"
   width="210"
   height="210"
   viewBox="0 0 696 676"
   sodipodi:docname="zia_symbol_image.svg"
   inkscape:version="1.3.2 (091e20e, 2023-11-25, custom)"
   xmlns:inkscape="http://www.inkscape.org/namespaces/inkscape"
   xmlns:sodipodi="http://sodipodi.sourceforge.net/DTD/sodipodi-0.dtd"
   xmlns="http://www.w3.org/2000/svg"
   xmlns:svg="http://www.w3.org/2000/svg">
  <sodipodi:namedview
     id="namedview1"
     pagecolor="#505050"
     bordercolor="#eeeeee"
     borderopacity="1"
     inkscape:showpageshadow="0"
     inkscape:pageopacity="0"
     inkscape:pagecheckerboard="0"
     inkscape:deskcolor="#505050"
     inkscape:zoom="45.254834"
     inkscape:cx="348.64784"
     inkscape:cy="211.44702"
     inkscape:window-width="1920"
     inkscape:window-height="992"
     inkscape:window-x="-8"
     inkscape:window-y="-8"
     inkscape:window-maximized="1"
     inkscape:current-layer="svg1" />
  <defs
     id="defs1" />
  <path
     style="fill:#BF0A30"
     d="m 322,657.22595 -1,-0.30529 -1.63787,-0.83676 -1.63787,-0.83677 -1.25465,-1.42896 -1.25465,-1.42897 -0.70748,-1.2946 L 313.8,649.8 l -0.2,-97.16472 -0.2,-97.16472 -5,-1.67799 -5,-1.678 -4,-1.70589 -4,-1.7059 -3.09112,-1.55139 L 289.21776,445.6 H 289.00888 288.8 l -0.009,75.1 -0.009,75.1 -0.8131,1.8 -0.8131,1.8 -1.47812,1.53389 -1.47811,1.5339 -1.6,0.82934 -1.6,0.82934 -2.9039,0.18962 -2.9039,0.18962 -1.88483,-0.71983 -1.88484,-0.71982 -1.86824,-1.74753 -1.86825,-1.74752 -0.94302,-2.0855 L 265.8,595.4 265.69534,512.23976 265.59068,429.07953 259.69634,423.03976 253.802,417 169.001,416.8 84.2,416.6 l -2.111772,-0.95432 -2.111773,-0.95432 -1.7903,-1.99125 -1.7903,-1.99124 -0.642766,-2.21104 -0.642765,-2.21103 0.177018,-2.13461 0.177017,-2.1346 1.174925,-2.29738 1.174924,-2.29738 1.931139,-1.45956 1.931139,-1.45956 1.508165,-0.45185 1.508165,-0.45186 h 76.810124 76.81013 l -2.3313,-5.10902 -2.3313,-5.10901 -1.97104,-5.79099 L 229.70838,371.8 129.15419,371.6 28.6,371.4 l -1.294601,-0.70748 -1.294601,-0.70748 -1.431088,-1.25651 -1.431088,-1.25651 -1.01904,-2.01098 -1.019041,-2.01098 -0.204365,-2.25379 -0.204366,-2.25378 0.647022,-2.22568 0.647023,-2.22568 1.7903,-1.99124 1.7903,-1.99125 2.111773,-0.95432 L 29.8,348.6 l 97.62414,-0.10397 97.62414,-0.10396 -0.56894,-5.51214 -0.23807,-5.55579 0.0878,-5.63162 0.50054,-5.25493 -97.80539,-0.13442 L 29,326.2 l -2.133088,-1.18158 -2.133087,-1.18158 -0.986032,-1.17183 -0.986031,-1.17183 -0.840815,-1.64659 -0.840815,-1.64659 -0.179727,-2.6 -0.179728,-2.6 0.838384,-2.21977 0.838383,-2.21977 1.653114,-1.66964 1.653115,-1.66964 1.848164,-0.91059 L 29.4,303.4 l 100.25062,-0.1031 100.07384,-0.10311 c 0.31341,-1.17624 0.32312,-1.16922 0.63664,-2.29931 l 1.85949,-5.14724 1.85948,-5.14724 2.13216,-4.5 2.13216,-4.5 h -76.4996 -76.499589 l -2.14016,-0.63556 -2.140159,-0.63556 L 78.768,278.032 76.471118,275.73512 75.835559,273.59496 75.2,271.4548 V 270 268.5452 l 0.610254,-2.05495 0.610255,-2.05495 1.289745,-1.67674 L 79,261.08182 l 2.2,-1.24091 2.2,-1.24091 85.20178,-0.2 85.20178,-0.2 3.70778,-4.08084 3.70777,-4.08085 2.39045,-2.07914 2.39044,-2.07914 0.004,-82.64002 0.004,-82.64001 0.93548,-2 0.93548,-2 1.78407,-1.637686 1.78407,-1.637686 1.87264,-0.715167 1.87264,-0.715168 2.9039,0.189619 2.9039,0.189619 1.6,0.829341 1.6,0.82934 1.47811,1.533894 1.47812,1.533894 0.8131,1.8 0.8131,1.8 0.009,74.53333 0.009,74.53334 0.3,-0.15402 0.3,-0.15401 4.71041,-2.29862 4.71042,-2.29861 4.48958,-1.73457 4.48959,-1.73457 2.9,-0.86307 2.9,-0.86308 0.004,-96.68306 0.004,-96.68306 0.93524,-2.008381 0.93524,-2.008382 1.35247,-1.352468 1.35247,-1.352468 2.00838,-0.935243 2.00838,-0.935243 2.86505,-0.0039 2.86505,-0.0039 2.5085,1.3 2.50851,1.3 1.31312,1.829328 1.31312,1.829327 0.61333,2.354712 0.61332,2.354712 2.2e-4,93.215966 2.3e-4,93.21596 5.5319,-0.51751 6.09002,-0.23381 5.45147,0.18074 5.31959,0.57058 0.10329,-94.4 0.10328,-94.400005 1.12724,-2.295539 1.12723,-2.295538 1.70753,-1.399187 1.70752,-1.399187 1.71553,-0.605275 1.71553,-0.605274 2.64971,0.0039 2.64971,0.0039 2,0.933325 2,0.933324 1.47737,1.638874 1.47737,1.638873 0.72263,1.323894 L 382.2,25.4 l 0.1032,97.24733 0.1032,97.24732 4.8968,1.70668 4.8968,1.70668 3.43121,1.50783 3.43121,1.50783 4.06879,2.04181 4.06879,2.04181 v -75.008 -75.008009 l 0.82947,-1.764627 0.82948,-1.764628 1.44389,-1.486731 1.4439,-1.486732 2.16943,-0.993198 2.16943,-0.993198 3.0572,0.181377 3.0572,0.181376 1.2946,0.67502 1.2946,0.67502 1.42069,1.247381 1.42069,1.247381 1.08471,1.845139 L 429.8,79.8 l 0.10372,83.5451 0.10372,83.54511 5.44818,5.65489 5.44818,5.6549 84.4481,0.2 84.4481,0.2 1.68938,0.90271 1.68937,0.90271 1.46154,1.46153 1.46153,1.46154 0.78109,1.76578 0.78109,1.76578 0.21933,2.12514 0.21934,2.12513 -0.73109,2.34484 -0.73108,2.34484 -2.22025,2.21586 -2.22025,2.21585 -2.14593,0.68415 -2.14594,0.68414 h -75.79686 -75.79686 l 0.21377,0.5 0.21378,0.5 2.19065,4.8 2.19066,4.8 1.83425,5.4 1.83425,5.4 100.13245,0.2 100.13245,0.2 2.36025,1.2071 2.36025,1.20711 1.45956,1.93114 1.45956,1.93114 0.45185,1.50816 0.45186,1.50817 v 2.57505 2.57505 l -1.03356,2.07409 -1.03356,2.07408 -1.78863,1.57441 -1.78863,1.57442 -1.84906,0.63004 -1.84907,0.63004 -97.42875,-3e-5 -97.36624,0.0937 0.47491,5.11114 0.25768,5.66076 -0.2701,5.97863 -0.52499,5.14776 97.6,0.10402 97.6,0.10401 2.20243,1.0332 2.20244,1.03321 1.35841,1.35841 1.35842,1.35842 0.93524,2.00838 0.93524,2.00838 -0.005,2.8 -0.005,2.8 -0.8131,1.8 -0.8131,1.8 -1.47812,1.54781 -1.47811,1.54782 -2,0.94828 -2,0.94827 -100.03769,0.004 -100.03769,0.004 -1.70946,5.1 -1.70947,5.1 -2.3854,5.4 -2.3854,5.4 -0.21024,0.5 -0.21024,0.5 h 76.40785 76.40784 l 2.51678,1.30285 2.51677,1.30286 1.31473,1.72372 1.31472,1.72372 0.65219,2.24343 0.65218,2.24344 -0.21416,2.07507 -0.21417,2.07507 -0.99885,1.95492 -0.99886,1.95492 -1.33571,1.27951 -1.33572,1.27951 -2,0.92049 -2,0.92049 -84.20371,0.2 -84.20371,0.2 -3.89826,4.2661 -3.89825,4.26609 -1.29804,1.0922 -1.29803,1.09219 -0.2,84.44171 -0.2,84.44171 -1.08471,1.84514 -1.08471,1.84514 -1.42069,1.24738 -1.42069,1.24738 -1.2946,0.67502 -1.2946,0.67502 -3.0572,0.18138 -3.0572,0.18137 -2.16943,-0.99319 -2.16943,-0.9932 -1.4439,-1.48673 -1.44389,-1.48674 -0.92948,-1.86898 L 407,595.8 l -0.1051,-75.50053 -0.1051,-75.50052 -4.8492,2.43082 -4.84919,2.43083 -4.84571,1.93588 -4.8457,1.93588 -2.49945,0.73382 -2.49944,0.73382 -5.6e-4,96.83611 -5.5e-4,96.83611 -1.22321,2.44786 -1.22321,2.44787 -1.2302,1.03514 -1.2302,1.03515 -1.61764,0.82525 -1.61763,0.82526 -2.25771,0.20472 -2.25771,0.20472 -2.22568,-0.64702 -2.22568,-0.64702 -1.99945,-1.79768 -1.99945,-1.79768 -0.94324,-1.90439 -0.94324,-1.9044 0.15152,-94.74502 0.15152,-94.74501 -1.9544,0.23152 -1.95439,0.23152 -4.78123,0.3858 -4.81877,0.048 -4.9343,-0.23192 -4.97184,-0.38203 0.15307,94.40356 L 336.6,648.6 l -1.12246,2.28578 -1.12246,2.28577 -1.75746,1.54698 -1.75745,1.54697 -2.06602,0.66725 -2.06602,0.66725 -1.85406,-0.0344 L 323,657.53124 Z m 37.6,-218.26678 4.6,-0.6071 4.4,-0.95008 4.4,-0.95007 4.79688,-1.45669 4.79688,-1.45669 3.40312,-1.39939 3.40312,-1.39939 4.8,-2.49893 4.8,-2.49894 3.40015,-2.19754 3.40015,-2.19755 4.99985,-4.02569 4.99985,-4.0257 4.22218,-4.3477 4.22219,-4.34771 2.38352,-3.00754 2.38351,-3.00754 2.62734,-3.79246 2.62733,-3.79246 2.05715,-3.67564 2.05714,-3.67564 1.76348,-3.92436 1.76348,-3.92436 1.27047,-3.6 1.27047,-3.6 1.33854,-5.2 1.33854,-5.2 1.36671,-5.55581 0.83639,-5.15805 0.43911,-5.2596 0.20881,-4.77346 -0.26889,-4.82654 -0.43723,-5.00332 -0.83002,-5.44419 -1.31615,-5.17903 -1.51665,-6 -1.51665,-6 -1.88269,-4.8 -1.88269,-4.8 -2.58858,-5 -2.58859,-5 -2.44061,-3.6 -2.44062,-3.6 -1.95904,-2.6 -1.95904,-2.6 -3.47307,-3.93479 -3.47307,-3.93478 -4.00118,-3.5436 -4.00117,-3.54361 -3.96398,-2.99001 -3.96398,-2.99002 -4.09981,-2.44219 -4.0998,-2.44219 -4.53622,-2.15477 -4.53621,-2.15477 -4.67236,-1.60977 -4.67236,-1.60978 -4.92764,-1.22277 -4.92764,-1.22278 -4.8,-0.81748 -4.8,-0.81747 -4.64085,-0.36455 -4.64084,-0.36454 -5.51831,0.2794 -5.3656,0.64344 -5.36561,0.64345 -4.86887,0.98584 -4.86887,0.98583 -5.27434,1.61943 -5.27434,1.61944 -4.69118,2.0119 -4.69119,2.0119 -4,2.22983 -4,2.22982 -3.4,2.32683 -3.4,2.32683 -4.2,3.37125 -4.2,3.37125 -4.6041,4.75172 -4.60411,4.75171 -2.64211,3.4 -2.64212,3.4 -2.65482,3.95492 -2.65481,3.95492 -2.92038,5.84508 -2.92037,5.84508 -1.45528,4 -1.45529,4 -1.04047,3.73937 -1.04046,3.73937 -0.74872,3.66063 -0.74872,3.66063 -0.82881,4.64419 -0.59008,4.0428 -0.3989,4.18517 -0.20656,4.43723 0.13499,4.26245 0.52209,4.02816 0.86003,5.71006 0.86003,5.71006 1.53813,6.08994 1.53813,6.08994 1.48622,4 1.48622,4 2.8001,5.69858 2.8001,5.69858 2.62507,3.90142 2.62507,3.90142 2.42912,3.2 2.42911,3.2 3.45804,3.81223 3.45805,3.81223 3.95278,3.40612 3.95279,3.40612 2.71591,2.1009 2.71592,2.10091 3.28408,2.11165 3.28409,2.11164 3.4,1.8397 3.4,1.83969 3.8,1.66657 3.8,1.66657 4.8,1.55105 4.8,1.55104 4.2,1.00187 4.2,1.00187 4.2,0.64611 4.2,0.64612 4,0.3273 4,0.3273 5.25308,0.0319 5.14692,-0.39267 z"
     id="path15"
     sodipodi:nodetypes="cccccccccccccccccccccccccccccccccccccccccccccccccccccccccccccccccccccccccccccccccccccccccccccccccccccccccccccccccccccccccccccccccccccccccccccccccccccccccccccccccccccccccccccccccccccccccccccccccccccccccccccccccccccccccccccccccccccccccccccccccccccccccccccccccccccccccccccccccccccccccccccccccccccccccccccccccccccccccccccccccccccccccccccccccccccccccccccccccccccccccccccccccccccccccccccccccccccccccccccccccccccccccccccccccccccccccccccccccccccccccccccccccccccccccccccccccccccccccccccccccccccccccccccccccccccccc" />
</svg>
